<?xml version="1.0" encoding="UTF-8" standalone="no"?>
<!-- Created with Inkscape (http://www.inkscape.org/) -->

<svg
   width="93.159576mm"
   height="51.289894mm"
   viewBox="0 0 93.159576 51.289894"
   version="1.1"
   id="svg1"
   sodipodi:docname="restfox.svg"
   xml:space="preserve"
   inkscape:version="1.4.2 (f4327f4, 2025-05-13)"
   xmlns:inkscape="http://www.inkscape.org/namespaces/inkscape"
   xmlns:sodipodi="http://sodipodi.sourceforge.net/DTD/sodipodi-0.dtd"
   xmlns="http://www.w3.org/2000/svg"
   xmlns:svg="http://www.w3.org/2000/svg"><sodipodi:namedview
     id="namedview1"
     pagecolor="#ffffff"
     bordercolor="#000000"
     borderopacity="0.25"
     inkscape:showpageshadow="2"
     inkscape:pageopacity="0.0"
     inkscape:pagecheckerboard="0"
     inkscape:deskcolor="#d1d1d1"
     inkscape:document-units="mm"
     inkscape:zoom="2.1021238"
     inkscape:cx="113.45668"
     inkscape:cy="102.99108"
     inkscape:window-width="1920"
     inkscape:window-height="1017"
     inkscape:window-x="-8"
     inkscape:window-y="-8"
     inkscape:window-maximized="1"
     inkscape:current-layer="layer1" /><defs
     id="defs1" /><g
     id="layer1"
     transform="translate(-61.047675,-112.51201)"><g
       id="g2"
       transform="translate(0,6.8791668)"><path
         id="rect4-8"
         style="fill:#006aff;fill-opacity:1;stroke:#f9f9f9;stroke-width:0.111672"
         d="m 107.62749,112.56785 c 5.90937,0 10.66669,4.75732 10.66669,10.66669 0,5.90937 -4.75732,10.66674 -10.66669,10.66674 -5.90936,0 -10.666735,-4.75737 -10.666735,-10.66674 0,-5.90937 4.757375,-10.66669 10.666735,-10.66669 z" /><g
         id="g1"><path
           fill="none"
           stroke="currentColor"
           stroke-linecap="round"
           stroke-linejoin="round"
           d="m 107.69117,119.47756 c 1.07877,0 1.92314,-0.005 1.92314,-0.005 0,0 0.86598,-1.49022 2.95213,-2.90938 0,0 -0.44019,4.12991 0.97949,7.91943 0,0 -3.68846,2.78355 -5.90253,5.42356 -2.21412,-2.63969 -5.9344,-5.42356 -5.9344,-5.42356 1.41948,-3.78952 0.97943,-7.91943 0.97943,-7.91943 2.0862,1.41916 2.95217,2.90938 2.95217,2.90938 0,0 1.00364,0.005 2.0824,0.005"
           stroke-width="0.321444"
           id="path1-2"
           style="fill:#f9f9f9;fill-opacity:1;stroke:none;stroke-opacity:1" /></g><g
         id="g3"
         transform="matrix(0.68511694,0,0,0.68511694,-7.8879108,-122.62802)"><g
           id="text1"
           style="font-size:12.976px;font-family:Arial;-inkscape-font-specification:Arial;fill:#006aff;stroke-width:1.08133"
           aria-label="RESTFOX"
           transform="translate(18.332174)"><path
             style="font-family:Abres;-inkscape-font-specification:Abres"
             d="m 105.05328,397.23767 v -2.55627 q 0,-0.7007 0.23357,-1.20677 0.24655,-0.51904 0.67475,-0.80451 0.44119,-0.29845 0.98618,-0.42821 0.54499,-0.12976 1.21974,-0.11678 h 1.40141 3.94471 q 1.12891,0 1.12891,-1.07701 v -0.84344 q 0,-1.07701 -1.12891,-1.07701 h -6.24146 v 1.73879 h -2.2189 v -3.36079 h 9.16106 q 2.62115,0 2.62115,2.37461 v 1.2976 q 0,2.2708 -2.40056,2.37461 l 2.8677,3.59435 v 0.0908 h -2.45247 l -2.90662,-3.68518 h -2.81579 q -0.31143,0 -0.57095,0.0389 -0.24654,0.0259 -0.4282,0.0778 -0.18167,0.0389 -0.3244,0.12976 -0.14274,0.0908 -0.23357,0.16869 -0.0908,0.0779 -0.15571,0.22059 -0.0649,0.14274 -0.10381,0.23357 -0.0259,0.0908 -0.0389,0.2725 -0.013,0.18166 -0.013,0.28547 0,0.0908 0,0.29845 0.013,0.20761 0.013,0.29845 v 1.66092 z m 13.3523,0 v -2.55627 q 0,-0.7007 0.23357,-1.20677 0.24654,-0.51904 0.67475,-0.80451 0.44118,-0.29845 0.98617,-0.42821 0.545,-0.12976 1.23272,-0.11678 h 1.38844 4.72326 v 1.42736 h -0.40226 -0.44118 -4.32101 q -0.31142,0 -0.55797,0.0389 -0.24654,0.0259 -0.44118,0.0778 -0.18166,0.0389 -0.3244,0.12976 -0.14274,0.0908 -0.23357,0.16869 -0.0908,0.0779 -0.15571,0.22059 -0.0649,0.14274 -0.10381,0.23357 -0.0259,0.0908 -0.0389,0.2725 -0.013,0.18166 -0.013,0.28547 0,0.0908 0,0.29845 0.013,0.20761 0.013,0.29845 h 9.00535 v 1.66092 h -9.00535 -0.44118 z m 11.22424,-9.732 v 1.68688 q -0.22059,-0.0649 -0.49309,-0.0649 h -8.51226 v 1.73879 h -2.21889 v -3.36079 z m 3.26994,2.47842 v 1.0251 h 1.8426 1.92044 2.66008 q 2.67306,0 2.67306,2.36164 v 1.49224 q 0,2.3746 -2.67306,2.3746 h -8.57713 v -1.66092 h 7.87643 q 1.18082,0 1.18082,-1.06404 v -1.01212 q 0,-1.07701 -1.18082,-1.07701 h -3.21805 -0.66177 -4.02256 v -0.0519 -0.28547 -1.98533 0.013 -0.6488 q 0,-1.95938 2.34865,-1.95938 h 8.56416 v 1.66093 h -7.86345 q -0.8694,0 -0.8694,0.63583 v 0.31142 0.67475 z m 17.38783,7.25358 h -2.23187 v -8.07107 h -4.96981 v -1.66093 h 12.18446 v 1.66093 h -4.98278 z"
             id="path1" /><path
             style="font-family:Abres;-inkscape-font-specification:Abres;fill:#1a1a1a"
             d="m 156.36037,397.23767 v -2.55627 q 0,-0.7007 0.23356,-1.20677 0.24655,-0.51904 0.67476,-0.80451 0.44118,-0.29845 0.98617,-0.42821 0.54499,-0.12976 1.23272,-0.11678 h 1.38843 4.72327 v 1.42736 h -0.40226 -0.44118 -4.32101 q -0.31142,0 -0.57094,0.0389 -0.24655,0.0259 -0.42821,0.0778 -0.18167,0.0389 -0.3244,0.12976 -0.14274,0.0908 -0.23357,0.16869 -0.0908,0.0779 -0.15571,0.22059 -0.0649,0.14274 -0.10381,0.23357 -0.0259,0.0908 -0.0389,0.2725 -0.013,0.18166 -0.013,0.28547 0,0.0908 0,0.29845 0.013,0.20761 0.013,0.29845 v 1.66092 z m 11.22424,-9.732 v 1.68688 q -0.2206,-0.0649 -0.49309,-0.0649 h -8.51226 v 1.73879 h -2.21889 v -3.36079 z m 9.57628,1.66093 h -5.1385 q -1.12891,0 -1.12891,1.06403 v 4.28208 q 0,1.06404 1.12891,1.06404 h 5.1385 q 1.12891,0 1.12891,-1.06404 v -4.28208 q 0,-1.06403 -1.12891,-1.06403 z m 0.72665,8.07107 h -6.5918 q -2.62116,0 -2.62116,-2.3746 v -4.98279 q 0,-2.37461 2.62116,-2.37461 h 6.5918 q 2.62116,0 2.62116,2.37461 v 4.98279 q 0,2.3746 -2.62116,2.3746 z m 17.34892,-9.69307 -5.46289,4.67136 5.72241,4.90493 v 0.0389 h -2.5952 l -4.39886,-3.81495 -4.34696,3.81495 h -2.55627 v -0.0389 l 5.59265,-4.8141 -5.57968,-4.76219 v -0.0389 h 2.5952 l 4.26911,3.68519 4.19124,-3.68519 h 2.56925 z"
             id="path2" /></g></g></g></g></svg>
