<?xml version="1.0" encoding="UTF-8" standalone="no"?>
<!-- Created with Inkscape (http://www.inkscape.org/) -->

<svg
   width="12.584608mm"
   height="12.584608mm"
   viewBox="0 0 12.584608 12.584608"
   version="1.1"
   id="svg1"
   xml:space="preserve"
   xmlns="http://www.w3.org/2000/svg"
   xmlns:svg="http://www.w3.org/2000/svg"><defs
     id="defs1" /><g
     id="layer1"
     transform="translate(-98.351709,-55.854803)"><g
       id="g5"
       transform="matrix(0.1461473,0,0,0.1461473,72.95726,27.90942)"><g
         id="g1935"
         transform="matrix(2.6636238,0,0,2.6636238,182.44926,-729.68205)"><path
           id="rect4"
           style="fill:#006aff;fill-opacity:1;stroke:none;stroke-width:0.169223"
           d="m 12.901429,345.73045 c 8.954799,0 16.163897,7.20909 16.163897,16.16389 0,8.9548 -7.209098,16.1639 -16.163897,16.1639 -8.9547976,0 -16.1638946,-7.2091 -16.1638946,-16.1639 0,-8.9548 7.209097,-16.16389 16.1638946,-16.16389 z" /><path
           fill="none"
           stroke="currentColor"
           stroke-linecap="round"
           stroke-linejoin="round"
           d="m 12.997979,356.20111 c 1.634724,0 2.91425,-0.008 2.91425,-0.008 0,0 1.312265,-2.25822 4.47357,-4.40879 0,0 -0.66684,6.25833 1.484219,12.00081 0,0 -5.58927,4.21806 -8.944452,8.21866 -3.3551775,-4.00011 -8.9927246,-8.21866 -8.9927246,-8.21866 2.1510601,-5.74248 1.4842191,-12.00081 1.4842191,-12.00081 3.161305,2.15057 4.473572,4.40879 4.473572,4.40879 0,0 1.5209055,0.008 3.1556235,0.008"
           stroke-width="0.487104"
           id="path1"
           style="fill:#ffffff;fill-opacity:1;stroke:none;stroke-opacity:1" /></g></g></g></svg>
